<?xml version="1.0" encoding="UTF-8" standalone="no"?>
<svg
   xmlns:dc="http://purl.org/dc/elements/1.1/"
   xmlns:cc="http://creativecommons.org/ns#"
   xmlns:rdf="http://www.w3.org/1999/02/22-rdf-syntax-ns#"
   xmlns:svg="http://www.w3.org/2000/svg"
   xmlns="http://www.w3.org/2000/svg"
   xmlns:sodipodi="http://sodipodi.sourceforge.net/DTD/sodipodi-0.dtd"
   xmlns:inkscape="http://www.inkscape.org/namespaces/inkscape"
   width="275.98999"
   height="197.74445"
   overflow="hidden"
   version="1.1"
   id="svg98"
   sodipodi:docname="hg.svg"
   style="overflow:hidden"
   inkscape:version="0.92.5 (2060ec1f9f, 2020-04-08)">
  <metadata
     id="metadata102">
    <rdf:RDF>
      <cc:Work
         rdf:about="">
        <dc:format>image/svg+xml</dc:format>
        <dc:type
           rdf:resource="http://purl.org/dc/dcmitype/StillImage" />
      </cc:Work>
    </rdf:RDF>
  </metadata>
  <sodipodi:namedview
     pagecolor="#ffffff"
     bordercolor="#666666"
     borderopacity="1"
     objecttolerance="10"
     gridtolerance="10"
     guidetolerance="10"
     inkscape:pageopacity="0"
     inkscape:pageshadow="2"
     inkscape:window-width="1908"
     inkscape:window-height="975"
     id="namedview100"
     showgrid="false"
     inkscape:zoom="1.0797831"
     inkscape:cx="641.7304"
     inkscape:cy="108.08644"
     inkscape:window-x="0"
     inkscape:window-y="0"
     inkscape:window-maximized="1"
     inkscape:current-layer="svg98" />
  <defs
     id="defs90">
    <clipPath
       id="clip0">
      <rect
         x="1182"
         y="494"
         width="1291"
         height="337"
         id="rect76" />
    </clipPath>
    <linearGradient
       x1="1827.8199"
       y1="784.67603"
       x2="1827.8199"
       y2="516.11499"
       gradientUnits="userSpaceOnUse"
       spreadMethod="reflect"
       id="fill1">
      <stop
         offset="0"
         stop-color="#7F7F7F"
         id="stop79" />
      <stop
         offset="0.13"
         stop-color="#7F7F7F"
         id="stop81" />
      <stop
         offset="0.42"
         stop-color="#0D0D0D"
         id="stop83" />
      <stop
         offset="0.9"
         stop-color="#7030A0"
         id="stop85" />
      <stop
         offset="1"
         stop-color="#7030A0"
         id="stop87" />
    </linearGradient>
  </defs>
  <g
     clip-path="url(#clip0)"
     transform="translate(-1685.87,-572.842)"
     id="g96">
    <path
       d="m 1903.18,649.033 c -5.23,0 -9.58,1.952 -13.05,5.855 -3.48,3.903 -5.21,8.468 -5.21,13.696 0,5.228 1.77,9.739 5.32,13.535 3.54,3.796 7.86,5.693 12.94,5.693 5.23,0 9.58,-1.933 13.05,-5.8 3.47,-3.868 5.21,-8.415 5.21,-13.643 0,-5.228 -1.74,-9.757 -5.21,-13.589 -3.47,-3.831 -7.82,-5.747 -13.05,-5.747 z m -11.82,-29.648 c 10.82,0 19.09,3.867 24.82,11.601 1.14,1.576 1.93,2.364 2.36,2.364 0.65,0 0.97,-1.29 0.97,-3.868 0,-5.729 0.64,-8.593 1.93,-8.593 1.15,0 7.34,0.59 18.59,1.772 11.24,1.182 17.08,1.844 17.51,1.987 1.21,0.43 1.82,1.361 1.82,2.793 0,4.942 -0.16,12.318 -0.48,22.129 -0.32,9.811 -0.49,17.188 -0.49,22.129 0,2.936 0.04,7.341 0.11,13.213 0.07,5.872 0.11,10.277 0.11,13.213 0,20.41 -4.3,35.055 -12.89,43.935 -8.88,9.096 -23.63,13.643 -44.26,13.643 -6.01,0 -14.21,-0.967 -24.6,-2.9 -13.25,-2.435 -19.87,-5.3 -19.87,-8.594 0,-1.361 1.54,-8.379 4.62,-21.055 0.5,-2.005 1.29,-3.008 2.36,-3.008 0.36,0.072 0.75,0.215 1.18,0.43 11.03,5.443 21.24,8.164 30.62,8.164 5.15,0 10.27,-1.289 15.36,-3.867 6.16,-3.079 9.24,-6.947 9.24,-11.602 v -7.197 c -7.31,6.875 -16.69,10.313 -28.15,10.313 -13.46,0 -24.53,-4.834 -33.19,-14.502 -8.38,-9.31 -12.57,-20.769 -12.57,-34.375 0,-13.679 4.01,-25.03 12.03,-34.053 8.38,-9.381 19.34,-14.072 32.87,-14.072 z m -200.63,-44.043 c 2.22,0 5.57,0.107 10.05,0.322 4.47,0.215 7.82,0.322 10.04,0.322 2.29,0 5.75,-0.107 10.37,-0.322 4.62,-0.215 8.07,-0.322 10.36,-0.322 1.22,0 1.83,0.644 1.83,1.933 0,5.371 -0.39,13.41 -1.18,24.117 -0.79,10.706 -1.18,18.745 -1.18,24.116 0,2.506 0.68,3.974 2.04,4.404 1.86,0.573 11.03,0.859 27.5,0.859 15.32,0 24.2,-0.286 26.64,-0.859 1.72,-0.43 2.58,-1.898 2.58,-4.404 0,-5.156 -0.26,-12.945 -0.76,-23.365 -0.5,-10.419 -0.75,-18.243 -0.75,-23.471 0,-2.22 0.9,-3.33 2.69,-3.33 2.07,0 5.24,0.107 9.5,0.322 4.27,0.215 7.47,0.322 9.62,0.322 2.08,0 5.24,-0.107 9.51,-0.322 4.26,-0.215 7.46,-0.322 9.61,-0.322 2.08,0 3.11,0.859 3.11,2.578 0,8.236 -0.34,20.661 -1.02,37.275 -0.68,16.615 -1.02,29.076 -1.02,37.383 0,7.806 0.38,19.515 1.13,35.127 0.75,15.612 1.13,27.285 1.13,35.02 0,1.503 -0.32,2.434 -0.97,2.793 -0.28,0.214 -1.29,0.393 -3.01,0.537 -4.36,0.429 -10.52,0.644 -18.47,0.644 -11.25,0 -17.85,-0.215 -19.82,-0.644 -1.97,-0.43 -2.96,-1.397 -2.96,-2.901 0,-5.657 0.27,-14.162 0.81,-25.512 0.54,-11.351 0.81,-19.856 0.81,-25.513 0,-2.793 -0.79,-4.404 -2.37,-4.834 -2.43,-0.573 -11.1,-0.86 -25.99,-0.86 -14.97,0 -23.71,0.287 -26.21,0.86 -1.58,0.358 -2.37,1.969 -2.37,4.834 0,5.586 0.18,13.947 0.54,25.083 0.36,11.136 0.54,19.497 0.54,25.083 0,2.148 -0.97,3.402 -2.9,3.76 -2.3,0.429 -9.03,0.644 -20.2,0.644 -9.67,0 -15.83,-0.215 -18.48,-0.644 -2.07,-0.358 -3.11,-1.468 -3.11,-3.33 0,-7.735 0.38,-19.408 1.13,-35.02 0.75,-15.612 1.13,-27.321 1.13,-35.127 0,-8.307 -0.36,-20.786 -1.08,-37.436 -0.72,-16.651 -1.07,-29.13 -1.07,-37.437 0,-1.575 0.75,-2.363 2.25,-2.363 z"
       stroke-miterlimit="10"
       id="path92"
       style="fill:url(#fill1);fill-rule:evenodd;stroke:#f92bbe;stroke-width:5;stroke-linejoin:round;stroke-miterlimit:10"
       inkscape:connector-curvature="0" />
    <text
       font-size="180.361"
       x="1688.37"
       y="733.15802"
       id="text94"
       style="font-size:180.36099243px;font-family:Arial, Arial_MSFontService, sans-serif;fill:#000000;fill-opacity:0">Hg</text>
  </g>
</svg>
